<svg xmlns="http://www.w3.org/2000/svg" width="937" height="755" viewBox="0 0 937 755">
  <defs>
    <style>
      .cls-1 {
        fill: #4a2a57;
      }

      .cls-1, .cls-2, .cls-3, .cls-4 {
        fill-rule: evenodd;
      }

      .cls-2 {
        fill: #964c98;
      }

      .cls-3 {
        fill: #358fa4;
      }

      .cls-4 {
        fill: #18294d;
      }
    </style>
  </defs>
  <path id="purple" class="cls-1" d="M500.5,601A23.005,23.005,0,1,1,477,624,23.254,23.254,0,0,1,500.5,601Zm288-353A63.5,63.5,0,1,1,725,311.5,63.5,63.5,0,0,1,788.5,248ZM267,665a45,45,0,1,1-45,45A45,45,0,0,1,267,665ZM247.5,51A23.005,23.005,0,1,1,224,74,23.254,23.254,0,0,1,247.5,51Zm287-25A21.254,21.254,0,0,1,556,47a21.506,21.506,0,0,1-43,0A21.254,21.254,0,0,1,534.5,26Z"/>
  <path id="pink" class="cls-2" d="M361,594c20.987,0,38,16.789,38,37.5S381.987,669,361,669s-38-16.789-38-37.5S340.013,594,361,594ZM539,89c20.987,0,38,16.789,38,37.5S559.987,164,539,164s-38-16.789-38-37.5S518.013,89,539,89ZM135,406c38.108,0,69,30.669,69,68.5S173.108,543,135,543s-69-30.669-69-68.5S96.892,406,135,406ZM725,591c20.987,0,38,16.789,38,37.5S745.987,666,725,666s-38-16.789-38-37.5S704.013,591,725,591ZM26.5,228a21.006,21.006,0,1,1,0,42A21.006,21.006,0,1,1,26.5,228Z"/>
  <path id="lightblue" class="cls-3" d="M232,119c20.987,0,38,16.789,38,37.5S252.987,194,232,194s-38-16.789-38-37.5S211.013,119,232,119ZM185,548c20.987,0,38,16.789,38,37.5S205.987,623,185,623s-38-16.789-38-37.5S164.013,548,185,548ZM899,381c20.987,0,38,16.789,38,37.5S919.987,456,899,456s-38-16.789-38-37.5S878.013,381,899,381ZM613,564a58,58,0,1,1-58,58A58,58,0,0,1,613,564Zm17-446a27,27,0,1,1-27,27A27,27,0,0,1,630,118ZM21.5,449a21.006,21.006,0,1,1,0,42A21.006,21.006,0,1,1,21.5,449Z"/>
  <path id="darkblue" class="cls-4" d="M411,0c44.735,0,81,36.041,81,80.5S455.735,161,411,161s-81-36.041-81-80.5S366.265,0,411,0ZM676.5,674A21.006,21.006,0,1,1,655,695,21.254,21.254,0,0,1,676.5,674Zm224-373A21.006,21.006,0,1,1,879,322,21.254,21.254,0,0,1,900.5,301ZM96.5,54A21.006,21.006,0,1,1,75,75,21.254,21.254,0,0,1,96.5,54Zm181,544A21.006,21.006,0,1,1,256,619,21.254,21.254,0,0,1,277.5,598ZM44.5,365a29,29,0,1,1,0,58A29,29,0,1,1,44.5,365ZM507,671c23.2,0,42,18.356,42,41s-18.8,41-42,41-42-18.356-42-41S483.8,671,507,671Z"/>
  <path id="acm" class="cls-4" d="M383.885,400.421h-32.8v96.568q0,22.1-13.192,37.95t-32.8,15.858q-42.074,0-43.14-42.761V400.421h-32.8V510.174q0,33.858,17.292,52.2t49.379,18.351a65.939,65.939,0,0,0,32.266-8.552q15.51-8.552,23-21.38h1.426v24.231h31.375V400.421ZM469.45,533.336q-15.693-17.814-15.688-45.612,0-27.435,15.688-45.255,16.044-17.814,39.931-17.817,23.532,0,39.575,17.817T565,487.724q0,27.8-16.044,45.256Q532.912,550.8,509.381,550.8q-23.89,0-39.931-17.461h0ZM573.2,553.647q24.6-27.077,24.6-65.923,0-38.484-24.6-65.923-23.89-27.076-58.471-27.082a75.378,75.378,0,0,0-35.118,8.2q-15.869,8.2-24.423,21.737h-1.426V400.421H422.387V652h32.8v-76.97L453.762,550.8h1.426q8.558,13.546,24.423,21.736a75.378,75.378,0,0,0,35.118,8.2q34.578,0,58.471-27.082h0ZM780.344,400.421H745.4L693.35,535.83h-0.713L641.3,400.421H605.643l70.594,174.607h32.8ZM105.7,290.232q13.369-9.621,33.336-9.621,27.45,0,42.783,12.115,0,20.672-16.222,35.991t-36.9,15.322a40.015,40.015,0,0,1-25.492-8.552q-10.88-8.552-10.874-21.38Q92.333,299.859,105.7,290.232ZM64.167,221.458l28.879,18.173q16.044-23.158,43.5-23.162a46.494,46.494,0,0,1,31.731,11.938q13.547,11.943,13.548,29.041v7.484q-18.9-10.691-48.131-10.691-34.227,0-54.728,16.036t-20.5,43.117q0,25.656,19.431,42.761t48.311,17.1q33.867,0,54.192-29.932h1.426v24.231H213.2V259.943q0-33.85-21.035-53.273t-57.4-19.421q-46.711,0-70.593,34.209h0ZM375.956,359.9a78.244,78.244,0,0,0,30.127-36.882l-29.236-12.472q-14.623,32.79-50.627,32.784-22.463,0-38.862-18.174-16.044-18.173-16.044-44.9t16.044-44.9q16.4-18.172,38.862-18.173,34.937,0,48.845,32.783l29.948-12.472q-9.985-23.519-29.948-36.881t-46.706-13.363q-38.865,0-64.532,26.369-25.32,26.376-25.314,66.636,0,39.555,25.314,66.636,25.669,26.375,64.532,26.369Q355.449,373.259,375.956,359.9ZM467.4,270.989q0-21.73,12.835-37.772t31.731-16.035q21.033,0,29.949,10.868t8.914,35.456V367.558h32.8V270.989q0-21.73,12.836-37.772T628.2,217.182q21.033,0,29.949,10.868t8.913,35.456V367.558h32.8V258.517q0-34.208-16.4-52.738t-46.705-18.53q-38.507,0-60.254,33.5a52.589,52.589,0,0,0-21.392-24.587q-14.624-8.9-33.871-8.909-15.333,0-30.84,8.552t-23,21.381h-1.426V192.951H434.6V367.558h32.8V270.989Z"/>
</svg>
