<svg height="5000" width="5000" xmlns="http://www.w3.org/2000/svg" xmlns:xlink="http://www.w3.org/1999/xlink"><clipPath id="a"><path d="m0 4000h4000v-4000h-4000z"/></clipPath><path d="m4800 2500a2300 2300 0 1 1 -4600 0 2300 2300 0 1 1 4600 0z" fill="#fbcc3a"/><g clip-path="url(#a)" fill-rule="evenodd" transform="matrix(1.23025 0 0 -1.23118 60 4940)"><g fill="#4c432f"><path d="m1884 690c22-16 47-23 71-32 10-4 10 0 10 8l-2 138c-1 53-2 106 4 158 7 52-15 303-21 352-10 73-22 145-33 217l-31 197c10 4 19 2 28-2l24-14c-1-9 4-15 11-19l4-10c-2-15 0-31 1-46 3-40 10-79 29-115l8-13c-8-13-11-27-9-41l9-69c10-65 18-130 13-196-2-26 11-85 12-94 3-46 6-92 5-138-1-32-1-65 1-97 3-73 9-145-1-217-3-22 7-31 27-26 48 12 91 34 130 63 4 2-26 128-22 164l19 176c6 52 8 104 18 156 9 42 19 83 23 126 8 85 21 169 35 253 11 69 24 137 28 206 1 21 5 41 23 55 26-22 41-49 32-85l-16-84c-13-74-25-148-28-223-1-49-5-99-16-147-17-75-28-151-32-227-3-75-6-150-22-224-2-12 9-88 18-96 15 12 26 18 48 33 13 0 27 24 42 39 20 15 26 27 27 58v20c1 29 18 56 18 85 1 56 11 56 6 112-3 40 3 133-4 172-5 33-6 50 1 65 17 3 26 11 28 28 11 5 18 15 25 25 8 11 12 24 24 31 13 4 21 11 21 25v-1l51 51c20 20 36 42 45 70 8 21 73 102 87 111 58-25 105-66 152-107l-231-259c-19-22-33-48-54-67l-20-17c-23-16-36-50-25-76 21-47 18-95 3-142-12-37-21-75-25-114-2-29-17-55-26-83-17-47-35-94-55-141-8-21-23-35-44-42-26-8-53-17-77-31-19-11-42-13-65-14-71-5-141-14-213-15-85-1-165 17-240 60-31 18-64 34-97 50-20 10-14 184-1 203 17 24 22 53 28 81l11 42a1665 1665 0 0 1 -2 326c-5 46-30 73-75 80-9 2-19 2-28 3 2 16 10 29 20 41l26 37 11-5c43-21 86-41 132-51 38-8 62-26 61-67l1-3c6-43 16-87 17-131 0-27-5-54-7-82-3-32-2-65-1-97 2-46 3-92-6-137-5-26-9-52-8-79 1-25-2-50-10-74-3-9-6-18-6-28s4-16 14-17"/><path d="m1476 1584c9-15 5-29-3-43-9-13-15-28-20-43-3-12-3-22 5-32-10-3-18 3-25 9-9 8-17 17-29 20-8 2-38 27-44 34l-46 56c-14 18-23 28-32 50-5 13-3 22-14 30-8 7-13 28-21 34l-43 255c-6 37-10 75-10 112v326l-1 119c41 37 83 74 118 116 27 32 62 54 101 67 56 19 111 42 167 62 52 19 105 30 161 33 51 3 103 7 155 8 83 2 164-10 244-28 99-21 196-47 286-95 117-62 229-133 325-226 18-18 32-37 35-63 1-13-7-22-17-31-5-4-3-21-7-26-12-13-23-17-18-34 9-32-4-60-33-75-2 16-6 32-13 47-24 58-60 110-98 160-21 27-48 45-81 55-5 7-5 15 1 22l5 10c5 13 1 21-13 22h-59c-44 33-90 62-140 86-103 50-212 81-326 95-92 11-183 7-273-19-34-10-206-83-223-97-23-18-42-39-53-67-6-15-91-147-95-168-4-22-7-43-15-64-27-68-37-139-39-211-1-57 3-113 10-170 11-79 33-155 76-224 28-43 60-81 102-112m1411 94c-25 8-47 23-68 39l-69 52c11 27 21 54 28 82 14 61 11 120-22 175 50 39 83 93 116 145 10 15 18 30 30 43a1146 1146 0 0 0 49-281c2-74-17-143-44-211zm-1608 1091c-15-1-26 7-34 17-20 22-36 48-53 73-68 103-140 204-213 304-15 21-33 40-53 58-8 7-15 15-18 27-3 16 5 27 21 24 38-6 71-17 96-52 82-117 166-232 249-348 12-18 24-36 34-56 13-24-3-47-29-47m-634-284c-13 38-29 76-33 117l-1 23c116-69 240-118 367-159 0-28-15-50-35-68-28 7-57 11-86 16-44 7-87 15-126 37-27 15-56 24-86 34m2366-1188c16 0 32-4 46-12 67-40 140-67 210-102 28-14 56-29 81-48 8-6 17-8 25-12 7-3 12-7 11-16-1-26-32-54-58-50l-18 6c-88 43-175 91-260 140-21 11-39 26-52 47l-8 16c-9 22 0 33 23 31m-480 1997-4-13c-41-86-66-177-94-267-7-24-14-48-24-71-9-21-23-38-40-51-16-12-22-13-32-5-18 13-22 25-15 42 12 26 22 53 32 80 28 80 49 161 77 241l19 48c4 10 44 75 56 72 13-2 21-2 35-2 7-16-10-62-10-74m-1824-1493c22-7 32-3 48 16 10 13 18 28 36 31 19 2 19 2 22 17 10-4 19-2 28 1l9 3c35 9 56-12 46-47-2-7-6-13-13-16-61-32-118-71-181-98-35-16-71-27-109-31l-15-3c-28-9-35 11-33 30 2 18 14 29 29 37 16 9 34 15 52 21 29 10 55 24 81 39m522-445c0-12-3-22-13-30l-196-162c-15-13-26-12-40 2-31 28-30 39 2 64l203 158c14 10 27 8 37-6 6-8 7-17 7-26m1591 1342c6 36 11 73 45 97 9 6 15 15 17 27 4 16 16 25 31 29 18 5 37 8 53 19 7 5 17 5 25-2 8-6 6-15 3-22l-5-13c-29-51-58-102-90-151l-13-17c-11-12-24-18-41-12s-24 19-25 36z"/><path d="m2844 2774c16 14 215 285 226 304 8 15 17 30 28 44 17 22 30 23 49 3 8-7 16-13 26-16 9-2 10-8 5-14-10-11-15-24-20-37-11-26-28-47-47-68-18-20-35-41-50-64-12-18-56-82-78-104m-1186 358c-2-42 9-84 15-127 3-28 5-57 1-85-2-18-10-32-24-44-7-6-15-8-24-4-10 6-18 15-16 28v114c1 20 1 39-4 59-5 15-6 91-10 110-7 6-4 13 0 20 4 6-26 211-23 217 17 32 44 26 52 27 15 2 29-245 32-261 3-17 0-34 1-54m1531-864c-2 18-9 35-15 52-7 24-1 33 23 37l13 1 107-8c-7-33-27-55-59-66-22-9-46-12-69-16m-140 48c4-28 9-55 6-83l-2-10-54-15c-24-6-41 4-50 26-4 8-5 17-6 25-2 17 5 28 22 29 24 1 45 11 66 21zm155-666c-6 33-6 67 0 101 11 0 19-5 27-11 11-11 25-16 40-18 25-3 29-12 20-35-13-32-37-45-71-39zm-166 105c11-15 13-31 10-48l-9-43c-33 1-50 16-54 45-3 26 8 41 34 45z"/></g><path d="m2449 1412c2 13 9 21 21 25 0-14-8-21-21-25" fill="#fbcc3a"/><path d="m2050 1969c15-2 23-13 32-22 12-12 12-12 21 2 19 30 18 62 10 94-10 36-19 73-16 110 2 27 5 54 16 79 12 27 35 43 61 53 27 10 48-8 46-37-3-55-8-109-27-162-14-41-6-81 10-120 8-18 16-37 27-54 10-15 22-17 34-4 21 23 36 51 36 84l-2 233c0 24 11 35 35 34 17 0 25-8 24-25-5-43-2-86-3-129l-2-175-10-18c-11 2-19-1-20-13-22 0-26-5-19-25l-5-8c-9 1-16-5-24-7-56-18-93-4-116 51-7 17-11 17-28 6-13-8-23-20-37-28-14-7-27-7-40 1-1 27-5 53-3 80m-249 141c-3 14-4 27-3 41 0 9 3 16 12 19 10 2 17-1 22-9 10-15 16-31 22-47l28-76c7-16 15-104 19-128 5-27 6-34 8-60-52 3-104 7-155 13-7 1-16 3-17 11-2 10 8 14 14 20 31-11 58-3 82 18 9 8 14 19 10 32-7 28-10 57-15 86-5 28-10 56-27 80m116 186 17 2c6 1 10-2 11-8 2-25 13-47 18-71 2-10 3-21 1-31-24 32-39 69-47 108" fill="#4c432f"/><path d="m1247 1699c5-27-4-50-18-72-8-12-14-25-21-37-6-11-14-14-26-11-11 3-20 10-29 18-44 41-66 94-81 150-7 26-12 51-25 74-5 10-6 20-4 30 3 10 18 166 18 226 1 59-1 118-1 177 0 7-2 13-8 15-7 3-14 2-19-3-6-5-9-12-12-18-38-65-69-134-99-202-21-50-52-96-86-138-10-12-25-20-25-38l-4-2c-10-3-14-10-16-20-18-3-26-18-36-31-16-19-26-23-48-16 0 5-3 9-7 12-38 30-56 71-63 117-20 131-45 260-70 389-2 11-9 17-18 26l-21-93c-24-106-48-213-65-321-13-72-28-143-37-216l-3-59-3-24c-10-48-48-71-95-58-26 8-49 22-73 34l-73 36c-7 4-13 9-15 18-12 52-25 104-23 158 0 40 8 78 29 112 14 24 22 49 25 76 6 59 23 116 36 174 23 102 50 204 77 306 12 48 16 97 30 145 19 65 59 111 128 127 39 9 76 2 112-17 24-13 35-33 32-60-1-20 1-39 1-58l1-23c4-41 20-79 33-117 0-26 5-52 14-76 36-98 63-198 87-299l18-69c83 109 130 233 179 357 20 18 35 40 35 68 12 5 19 15 24 26l4 15c15 43 45 64 90 66 20 1 40-1 60-4 14-2 22-10 25-24 2-12 1-25 12-34l1-119v-326c0-37 4-75 10-112 12-73 34-213 41-244zm1930 104c3 22-1 44 3 66l5 17c7 19 5 29-12 42l-48 32c-18 12-36 25-51 41-13 13-21 28-26 45-3 11-2 16 10 17 35 5 70 5 105 2 8-1 15 0 22 1 14 4 20 12 19 27l-4 57c-2 34 2 68-4 101l-4 20 2 10c3 28-2 55-6 83 0 9 3 18 2 27-2 23-19 39-48 41-35 2-65 15-94 35-19 13-37 27-58 38-11 6-15 19-22 29-2 2-1 4 2 6s6 3 8 6c15 23 38 23 63 23 45 0 89-8 134-12l153-14a3285 3285 0 0 1 329-9c30 2 55-9 79-26 11-8 18-19 22-32 9-30-5-53-35-57-25-4-51-5-77-7l-190-14-107 8-13-1c-24-4-30-13-23-37 6-17 13-34 15-52 2-36 13-71 20-107 6-28 10-56 10-85 0-15 3-65 15-61 65-1 97 4 173 2 29-1 56-10 83-17 24-6 47 0 65-18 17-17 7-71-7-90-25-35-49-27-93-27-42-1-84-9-126-13-31-3-62-5-94-2-23 3-34-7-34-31l3-68c-6-34-6-68 0-101-7-18-4-36 1-53 7-22 16-44 15-68 0-11 10-14 20-15l59-1c53-2 105-4 157 1 23 2 45 6 68 5 22 0 44-2 65-8 29-8 40-25 34-55-4-17-1-36-4-53-5-24-17-36-41-39-18-2-36 0-54 1-56 2-111-4-166-10-64-7-129-14-194-6-23 2-44 10-59 28-17 20-39 33-62 43-10 5-21 10-30 17-14 9-15 18-4 30l13 13c19 18 24 40 14 63-10 22-7 42 5 61 13 21 13 41-2 60l9 43c3 17 1 33-10 48m-847-58c9 36-6 63-32 85-5 7-5 15-1 22 2 4 3 9 1 14l5 8c12-2 18 3 18 15l1 10c9 1 18 1 20 13l10 18c17 13 23 32 25 52 6 58 12 117 11 175-2 86 2 171 12 256 6 45 20 87 52 122h59c14-1 18-9 13-22l-5-10c-6-7-6-15-1-22-11-48-15-97-17-145-3-104 4-209-13-312-1-8 0-16 9-20 8-4 15-1 22 4l102 88c39 34 73 72 89 123 16 34 27 48 33 75 13 34 3 28 15 42 4 5 5 14 10 18 10 9 18 18 17 31 28 13 55 8 83 0 27-8 53-18 82-15 12 1 13-9 11-17-4-24-12-47-24-69-13-22-27-44-35-70-12-13-20-28-30-43-33-52-66-106-116-145-30-11-53-34-74-56-23-24-45-48-74-65-19-11-19-24-2-37l72-55c22-16 45-33 72-44l69-52c21-16 43-31 68-39 21-24 48-40 74-57l29-19c13-9 17-23 10-37-12-25-26-49-44-69-11-13-21-14-37-7-17 8-32 19-47 29-22 16-44 30-67 43-47 41-94 82-152 107-14 20-34 34-55 47-21 14-43 26-63 42l-26 23c-11 9-21 6-24-9v-19c2-63-1-126-6-189-4-42-9-84-9-127v1c-12-4-19-12-21-25-12-7-16-20-24-31-7-10-14-20-25-25-25 3-49 24-50 46-1 25-8 49-16 73-8 23-11 47-5 71 3 14 4 27 4 41 2 53-4 106-3 158m-421 105c22 3 28 13 22 32-5 20-11 40-18 59s-24 81-31 97l-28 76c-6 16-12 32-22 47-5 8-12 11-22 9-9-3-12-10-12-19-1-14 0-27 3-41l-20-75c-13-47-26-93-30-141-6-6-16-10-14-20 1-8 10-10 17-11 51-6 103-10 155-13m40-167-4 10c4 16 2 19-11 19l-24 14c-9 4-18 6-28 2l-44 5c-40 4-81 10-122 11-20 1-30-7-36-26l-41-135c-10-33-20-66-24-100l-26-37a80 80 0 0 1 -20-41c-11-7-18-18-26-28-8-8-16-9-25-1-23 18-42 38-42 70 0 12-9 16-18 20-8 10-8 20-5 32 5 15 11 30 20 43 8 14 12 28 3 43 9 13 15 27 20 42 17 45 23 93 26 140 2 24-8 41-29 52l-8 4c-12 8-23 17-19 33 3 16 16 22 31 25l10 1c59 0 72 19 83 56l18 55c21 64 22 68 52 129l55 114c9 24 17 48 21 73l21 115c5 28 22 45 50 52 22 5 44-4 65-9 6-2 8-8 5-13-16-35-5-66 12-97 11-19 22-38 28-60 8-39 23-76 47-108l86-219c-2-27 2-53 3-80-4-20 5-36 14-52 7-12 14-24 13-37-2-50 9-97 28-142 14-36 31-70 46-106 22-57 12-108-30-152-17-18-32-18-50-2-13 11-24 23-35 36-20 23-35 50-52 75l-8 13c6 21 9 42 9 63 0 38-11 72-39 98" fill="#fefefe"/></g></svg>